<svg xmlns="http://www.w3.org/2000/svg" width="1433" height="1000" viewBox="0 0 1433 1000" fill="none"><g clip-path="url(#clip0_7_1279)"><path d="M1289.87 878.601L1308.28 814.402H1315.7L1333.02 878.601H1326.15L1322.53 864.787H1300.24L1296.22 878.601H1289.87ZM1301.88 858.854H1320.92L1311.81 823.095L1301.88 858.854Z" fill="#054163"></path><path d="M979.559 878.601L997.967 814.402H1005.4L1022.71 878.601H1015.85L1012.22 864.787H989.935L985.911 878.601H979.559ZM991.571 858.854H1010.61L1001.51 823.095L991.571 858.854Z" fill="#054163"></path><path d="M889.258 853.009V878.6H882.891V814.401H900.946C908.345 814.401 913.238 815.523 915.641 817.781C918.043 820.024 919.237 824.215 919.237 830.355V836.273C919.237 840.39 918.426 843.519 916.82 845.674C915.213 847.814 912.708 849.113 909.317 849.541C912.487 850.176 914.815 851.563 916.304 853.688C917.792 855.827 918.529 858.868 918.529 862.823V878.6H912.162V865.76C912.162 860.654 911.351 857.259 909.73 855.562C908.11 853.865 904.926 853.009 900.209 853.009H889.258ZM899.959 820.423H889.259V846.811H899.959C905.191 846.811 908.552 846.132 910.026 844.76C911.515 843.387 912.252 840.76 912.252 836.879V828.585C912.252 825.412 911.559 823.272 910.159 822.135C908.758 820.998 905.368 820.423 899.959 820.423Z" fill="#054163"></path><path d="M778.371 878.601L796.78 814.402H804.208L821.527 878.601H814.658L811.033 864.787H788.748L784.723 878.601H778.371ZM790.383 858.854H809.426L800.318 823.095L790.383 858.854Z" fill="#054163"></path><path d="M178.306 911.023C178.226 911.023 178.147 911.023 178.066 911.022C165.262 910.892 154.988 900.393 155.118 887.572L162.047 205.363C162.177 192.623 172.532 182.384 185.225 182.384C185.306 182.384 185.386 182.384 185.467 182.385C198.27 182.515 208.545 193.014 208.414 205.835L201.485 888.044C201.355 900.785 191 911.023 178.306 911.023Z" fill="#D91F27"></path><path d="M99.9419 684.615C99.8756 684.615 99.81 684.615 99.7437 684.614C86.9399 684.506 76.647 674.025 76.7547 661.205L79.145 375.678C79.2513 362.923 89.6111 352.657 102.325 352.657C102.391 352.657 102.456 352.657 102.523 352.658C115.327 352.766 125.619 363.246 125.512 376.066L123.122 661.593C123.015 674.348 112.655 684.615 99.9419 684.615Z" fill="#B82930"></path><path d="M24.1368 474.499C24.0912 474.499 24.0484 474.499 24.0028 474.499C11.1989 474.426 0.877085 463.974 0.949598 451.153L1.10567 423.445C1.17819 410.669 11.5449 400.361 24.2873 400.361C24.3329 400.361 24.3757 400.361 24.4206 400.361C37.2252 400.434 47.5464 410.886 47.4738 423.707L47.3178 451.415C47.2459 464.191 36.8792 474.499 24.1368 474.499Z" fill="#383535"></path><path d="M445.923 674.442C445.874 674.442 445.827 674.442 445.778 674.441C432.974 674.363 422.657 663.907 422.735 651.086L425.664 169.393C425.742 156.621 436.108 146.32 448.845 146.32C448.894 146.32 448.941 146.32 448.99 146.321C461.794 146.398 472.111 156.855 472.033 169.677L469.103 651.369C469.026 664.141 458.661 674.442 445.923 674.442Z" fill="#148F45"></path><path d="M359.812 753.804C359.769 753.804 359.726 753.804 359.683 753.804C346.88 753.734 336.556 743.284 336.625 730.462L340.375 39.7884C340.444 27.0099 350.812 16.6995 363.557 16.6995C363.6 16.6995 363.643 16.6995 363.686 16.6995C376.49 16.7693 386.813 27.2188 386.744 40.0402L382.994 730.715C382.924 743.493 372.557 753.804 359.812 753.804Z" fill="#224383"></path><path d="M266.503 1000C266.459 1000 266.414 1000 266.37 999.999C253.565 999.927 243.244 989.475 243.317 976.654L248.684 23.0841C248.756 10.3077 259.123 0 271.866 0C271.91 0 271.955 -3.79893e-07 271.999 0.000691135C284.804 0.0726087 295.125 10.5248 295.052 23.3455L289.685 976.915C289.613 989.692 279.247 1000 266.503 1000Z" fill="#146596"></path><path d="M701.194 263.917C701.17 263.917 701.148 263.917 701.125 263.917C688.32 263.879 677.971 253.455 678.008 240.634L678.164 187.022C678.201 174.224 688.575 163.875 701.347 163.875C701.371 163.875 701.393 163.875 701.416 163.875C714.221 163.912 724.57 174.336 724.533 187.158L724.377 240.769C724.339 253.567 713.966 263.917 701.194 263.917Z" fill="#F39122"></path><path d="M618.786 359.615C618.721 359.615 618.658 359.615 618.593 359.614C605.789 359.51 595.494 349.032 595.598 336.211L596.971 167.417C597.074 154.661 607.435 144.391 620.15 144.391C620.215 144.391 620.278 144.391 620.343 144.392C633.147 144.496 643.442 154.974 643.337 167.794L641.965 336.589C641.862 349.345 631.501 359.615 618.786 359.615Z" fill="#F5BD17"></path><path d="M532.914 633.653C532.872 633.653 532.83 633.653 532.788 633.652C519.983 633.584 509.659 623.136 509.727 610.314L512.279 131.217C512.347 118.439 522.714 108.126 535.46 108.126C535.503 108.126 535.545 108.126 535.587 108.126C548.391 108.195 558.715 118.643 558.647 131.465L556.095 610.561C556.027 623.341 545.661 633.653 532.914 633.653Z" fill="#44A848"></path><path d="M1394.78 340.502C1404.99 340.502 1413.64 343.899 1420.73 350.695C1427.91 357.591 1431.46 365.785 1431.46 375.378V643.199C1431.46 652.993 1427.92 661.287 1420.73 668.083C1413.64 674.878 1404.99 678.376 1394.78 678.376C1384.68 678.376 1376.03 674.878 1368.84 668.083C1361.76 661.287 1358.21 652.993 1358.21 643.199V375.379C1358.21 365.786 1361.76 357.591 1368.84 350.696C1376.03 343.9 1384.68 340.502 1394.78 340.502Z" fill="#054163"></path><path d="M1124.52 778.175C1124.52 778.175 1124.63 778.175 1124.84 778.175C1134.84 777.758 1143.17 774.211 1149.84 767.534C1156.61 760.753 1160.05 752.303 1160.26 742.184L1157.44 411.172H1265.28C1275.17 411.172 1283.61 407.625 1290.59 400.635C1297.47 393.541 1300.91 385.195 1300.91 375.389C1300.91 365.375 1297.47 356.924 1290.59 350.039C1283.61 343.153 1275.17 339.607 1265.28 339.607H1121.81C1112.23 339.607 1103.79 343.153 1096.39 350.352C1089.52 357.238 1086.08 365.687 1086.08 375.702L1088.79 742.81C1089.2 752.721 1092.85 761.171 1099.62 767.952C1106.5 774.836 1114.73 778.175 1124.52 778.175Z" fill="#054163"></path><path d="M695.253 777.654C699.316 777.654 703.379 776.924 707.443 775.463L842.675 726.223C852.051 722.572 858.719 716.417 862.886 707.758C866.949 699.1 867.366 690.024 864.032 680.426C860.386 671.037 854.239 664.36 845.592 660.397C836.945 656.432 827.88 656.12 818.295 659.353L753.284 682.825L821.942 484.51L880.807 663.317C884.349 672.914 890.287 679.8 898.726 684.077C907.166 688.354 916.125 688.98 925.711 685.954C935.296 682.616 942.171 676.774 946.443 668.324C950.715 659.875 951.444 650.798 948.631 640.992L856.74 361.932C850.802 346.493 839.654 338.251 823.193 337.208C822.984 337.208 822.88 337.208 822.88 337.208C807.565 337.208 796.418 345.24 789.228 361.305L661.706 730.186C657.435 744.27 660.247 756.579 670.25 767.22C677.75 774.106 686.085 777.654 695.253 777.654Z" fill="#054163"></path><path d="M1415.9 813.605C1421.74 813.605 1425.97 815.302 1428.59 818.711C1431.2 822.121 1432.51 827.684 1432.51 835.418V857.718C1432.51 865.422 1431.2 870.956 1428.59 874.335C1425.97 877.716 1421.74 879.398 1415.9 879.398H1410.43C1404.55 879.398 1400.31 877.716 1397.7 874.335C1395.09 870.956 1393.78 865.422 1393.78 857.718V835.418C1393.78 827.684 1395.09 822.121 1397.7 818.711C1400.31 815.302 1404.55 813.605 1410.43 813.605H1415.9ZM1415.09 819.981H1411.2C1407.15 819.981 1404.36 821.014 1402.86 823.065C1401.34 825.131 1400.59 829.249 1400.59 835.418V857.718C1400.59 863.858 1401.34 867.96 1402.86 870.026C1404.36 872.078 1407.14 873.111 1411.2 873.111H1415.09C1419.14 873.111 1421.93 872.078 1423.43 870.026C1424.95 867.96 1425.7 863.857 1425.7 857.718V835.418C1425.7 829.249 1424.95 825.131 1423.43 823.065C1421.93 821.014 1419.14 819.981 1415.09 819.981Z" fill="#054163"></path><path d="M1324.01 797.223C1323.32 799.924 1322.23 801.99 1320.75 803.406C1319.27 804.838 1317.5 805.546 1315.42 805.546C1314.96 805.546 1314.5 805.516 1314.06 805.443C1313.62 805.37 1313.13 805.251 1312.62 805.119L1309.17 803.938C1308.71 803.805 1308.28 803.687 1307.92 803.613C1307.55 803.54 1307.19 803.51 1306.88 803.51C1305.88 803.51 1305.03 803.731 1304.36 804.159C1303.68 804.602 1303.13 805.296 1302.7 806.255H1298.89C1299.53 803.628 1300.57 801.621 1302.02 800.249C1303.48 798.876 1305.29 798.197 1307.49 798.197C1307.88 798.197 1308.3 798.227 1308.74 798.3C1309.17 798.374 1309.59 798.492 1310.02 798.625L1313.44 799.805C1313.9 799.938 1314.36 800.056 1314.81 800.129C1315.27 800.203 1315.68 800.232 1316.02 800.232C1317.05 800.232 1317.92 799.981 1318.63 799.48C1319.34 798.978 1319.87 798.226 1320.21 797.222L1324.01 797.223Z" fill="#054163"></path><path d="M1190.2 878.601V814.402H1196.56V842.295H1222.12V814.402H1228.49V878.601H1222.12V848.494H1196.56V878.601H1190.2Z" fill="#054163"></path><path d="M1084.07 878.601V814.402H1093.46L1117.24 871.428V814.402H1123.43V878.601H1113.7L1090.26 822.578V878.601H1084.07Z" fill="#054163"></path><path d="M660.035 878.601V814.402H670.191L688.054 870.911L707.259 814.402H716.987V878.601H711.15V819.892L691.253 878.601H684.782L665.872 819.892V878.601H660.035Z" fill="#054163"></path><path d="M951.911 782.531C936.593 782.531 922.306 772.85 917.148 757.51L908.318 731.25C901.854 712.024 912.178 691.19 931.379 684.717C950.581 678.243 971.387 688.581 977.852 707.808L986.682 734.068C993.146 753.294 982.822 774.128 963.621 780.602C959.739 781.91 955.791 782.531 951.911 782.531Z" fill="#D91F27"></path><path d="M1029.33 412.186H1001.66C981.397 412.186 964.973 395.74 964.973 375.453C964.973 355.166 981.397 338.72 1001.66 338.72H1029.33C1049.59 338.72 1066.01 355.166 1066.01 375.453C1066.01 395.74 1049.59 412.186 1029.33 412.186Z" fill="#054163"></path><path d="M1394.84 780.246C1374.58 780.246 1358.15 763.8 1358.15 743.513V715.804C1358.15 695.517 1374.58 679.072 1394.84 679.072C1415.1 679.072 1431.52 695.517 1431.52 715.804V743.513C1431.52 763.8 1415.1 780.246 1394.84 780.246Z" fill="#383535"></path><path d="M488.076 92.4678L471.359 108.784L475.304 131.823C476.006 135.919 471.712 139.043 468.038 137.109L447.375 126.232L426.712 137.109C423.038 139.043 418.743 135.919 419.446 131.823L423.391 108.784L406.674 92.4678C403.701 89.5662 405.342 84.5112 409.451 83.9137L432.553 80.553L442.884 59.5911C444.721 55.8638 450.029 55.8638 451.866 59.5911L462.197 80.553L485.3 83.9137C489.408 84.5112 491.049 89.5662 488.076 92.4678Z" fill="#224383"></path></g><defs><clipPath id="clip0_7_1279"><rect width="1431.56" height="1000" fill="white" transform="translate(0.949219)"></rect></clipPath></defs></svg>